<svg xmlns="http://www.w3.org/2000/svg" viewBox="0 0 128 128" role="img" aria-labelledby="title">
  <title>InmoLawyer</title>
  <rect width="128" height="128" rx="28" fill="#166534"/>
  <circle cx="64" cy="64" r="40" fill="#25D366" opacity="0.18"/>
  <path d="M64 32c4.3 0 7.8 3.5 7.8 7.8v4.7h8.9c3.2 0 5.8 2.6 5.8 5.8 0 3.2-2.6 5.8-5.8 5.8h-2.4v19.5c0 11.4-8.5 19.7-20.2 19.7s-20.2-8.2-20.2-19.7V56.2h-2.5c-3.2 0-5.8-2.6-5.8-5.8 0-3.2 2.6-5.8 5.8-5.8h8.9v-4.7c0-4.3 3.5-7.8 7.8-7.8h11.9zm-14.6 24.2v19.1c0 5.3 3.7 8.9 8.7 8.9s8.7-3.6 8.7-8.9V56.2H49.4z" fill="#ffffff"/>
  <circle cx="92" cy="94" r="14" fill="#25D366"/>
  <path d="M98.5 89.9c-.3-.2-1.9-.9-2.2-1-.3-.1-.5-.2-.7.2-.2.3-.8 1-1 1.1-.2.2-.4.2-.7 0-.3-.2-1.4-.5-2.6-1.7-1-1-1.6-2.1-1.8-2.4-.2-.3 0-.5.1-.7.1-.1.3-.4.5-.6.2-.2.2-.3.4-.5.1-.2.1-.4 0-.6-.1-.2-.7-1.8-1-2.5-.2-.6-.5-.5-.7-.5h-.6c-.2 0-.6.1-.9.5-.3.4-1.2 1.2-1.2 2.9s1.2 3.4 1.3 3.7c.2.2 2.3 3.6 5.6 4.9.8.4 1.5.6 2 .7.8.2 1.6.2 2.2.1.7-.1 1.9-.8 2.2-1.5.3-.7.3-1.4.2-1.5-.1-.2-.3-.2-.6-.4z" fill="#166534"/>
</svg>
