<svg xmlns="http://www.w3.org/2000/svg" width="1200" height="630" viewBox="0 0 1200 630" role="img" aria-labelledby="title desc">
  <title id="title">InmoLawyer</title>
  <desc id="desc">Analisis de documentos inmobiliarios por WhatsApp con inteligencia artificial</desc>
  <defs>
    <linearGradient id="bg" x1="0%" x2="100%" y1="0%" y2="100%">
      <stop offset="0%" stop-color="#0f3b28"/>
      <stop offset="100%" stop-color="#16a34a"/>
    </linearGradient>
  </defs>
  <rect width="1200" height="630" fill="url(#bg)"/>
  <circle cx="920" cy="120" r="180" fill="#25D366" opacity="0.12"/>
  <circle cx="1120" cy="520" r="220" fill="#25D366" opacity="0.1"/>
  <rect x="72" y="78" width="1056" height="474" rx="36" fill="rgba(255,255,255,0.08)" stroke="rgba(255,255,255,0.18)"/>
  <g transform="translate(110 122)">
    <rect width="92" height="92" rx="24" fill="#ffffff"/>
    <path d="M44.7 18.9c3.4 0 6.2 2.8 6.2 6.2v3.7H58c2.6 0 4.6 2.1 4.6 4.6S60.5 38 58 38h-1.9v15.4c0 9-6.7 15.5-15.9 15.5S24.3 62.4 24.3 53.4V38h-1.9c-2.6 0-4.6-2.1-4.6-4.6s2.1-4.6 4.6-4.6h7.1v-3.7c0-3.4 2.8-6.2 6.2-6.2h9zm-11.5 19v15.1c0 4.1 2.9 7 6.9 7s6.9-2.8 6.9-7V37.9H33.2z" fill="#166534"/>
    <circle cx="71" cy="72" r="16" fill="#25D366"/>
    <path d="M77.1 67.3c-.3-.2-1.8-.9-2.1-.9-.3-.1-.5-.2-.7.2s-.8 1-1 1.1c-.2.2-.4.2-.7 0-.3-.2-1.3-.5-2.5-1.6-.9-.9-1.5-2-1.7-2.3-.2-.3 0-.5.1-.6.1-.1.3-.4.5-.6.2-.2.2-.3.3-.5s.1-.4 0-.6c-.1-.2-.7-1.7-.9-2.4-.2-.5-.5-.5-.7-.5h-.6c-.2 0-.6.1-.8.5-.3.4-1.1 1.2-1.1 2.8 0 1.6 1.1 3.2 1.3 3.5.2.2 2.2 3.4 5.4 4.6.8.3 1.4.5 1.9.6.8.2 1.5.2 2.1.1.7-.1 1.8-.7 2.1-1.4.3-.7.3-1.3.2-1.5-.1-.1-.3-.2-.6-.3z" fill="#166534"/>
  </g>
  <text x="110" y="286" fill="#ffffff" font-family="Inter, Arial, sans-serif" font-size="64" font-weight="800">
    Tu abogado inmobiliario
  </text>
  <text x="110" y="360" fill="#DCF8C6" font-family="Inter, Arial, sans-serif" font-size="64" font-weight="800">
    en WhatsApp
  </text>
  <text x="110" y="432" fill="#e5e7eb" font-family="Inter, Arial, sans-serif" font-size="28" font-weight="500">
    Analiza contratos, promesas y certificados con IA.
  </text>
  <text x="110" y="472" fill="#e5e7eb" font-family="Inter, Arial, sans-serif" font-size="28" font-weight="500">
    Colombia. 30 segundos. Primer analisis gratis.
  </text>
  <rect x="110" y="508" width="304" height="56" rx="28" fill="#25D366"/>
  <text x="262" y="545" text-anchor="middle" fill="#0f3b28" font-family="Inter, Arial, sans-serif" font-size="25" font-weight="800">
    inmolawyer.com
  </text>
</svg>
